{
	"asset":{
		"generator":"Khronos glTF Blender I/O v5.0.21",
		"version":"2.0"
	},
	"scene":0,
	"scenes":[
		{
			"name":"Scene",
			"nodes":[
				0
			]
		}
	],
	"nodes":[
		{
			"mesh":0,
			"name":"pudgy"
		}
	],
	"materials":[
		{
			"doubleSided":true,
			"name":"Material",
			"pbrMetallicRoughness":{
				"baseColorTexture":{
					"index":0
				},
				"metallicFactor":0,
				"roughnessFactor":0.5
			}
		}
	],
	"meshes":[
		{
			"name":"mesh",
			"primitives":[
				{
					"attributes":{
						"POSITION":0,
						"NORMAL":1,
						"TEXCOORD_0":2,
						"COLOR_0":3,
						"COLOR_1":4
					},
					"indices":5,
					"material":0
				}
			]
		}
	],
	"textures":[
		{
			"sampler":0,
			"source":0
		}
	],
	"images":[
		{
			"mimeType":"image/png",
			"name":"pudgy_base_colour",
			"uri":"pudgy_base_colour.png"
		}
	],
	"accessors":[
		{
			"bufferView":0,
			"componentType":5126,
			"count":13411,
			"max":[
				0.6806700825691223,
				0.9505483508110046,
				0.5100467205047607
			],
			"min":[
				-0.6848610639572144,
				-0.9450879693031311,
				-0.5098205208778381
			],
			"type":"VEC3"
		},
		{
			"bufferView":1,
			"componentType":5126,
			"count":13411,
			"type":"VEC3"
		},
		{
			"bufferView":2,
			"componentType":5126,
			"count":13411,
			"type":"VEC2"
		},
		{
			"bufferView":3,
			"componentType":5121,
			"count":13411,
			"normalized":true,
			"type":"VEC4"
		},
		{
			"bufferView":4,
			"componentType":5123,
			"count":13411,
			"normalized":true,
			"type":"VEC4"
		},
		{
			"bufferView":5,
			"componentType":5123,
			"count":70146,
			"type":"SCALAR"
		}
	],
	"bufferViews":[
		{
			"buffer":0,
			"byteLength":160932,
			"byteOffset":0,
			"target":34962
		},
		{
			"buffer":0,
			"byteLength":160932,
			"byteOffset":160932,
			"target":34962
		},
		{
			"buffer":0,
			"byteLength":107288,
			"byteOffset":321864,
			"target":34962
		},
		{
			"buffer":0,
			"byteLength":53644,
			"byteOffset":429152,
			"target":34962
		},
		{
			"buffer":0,
			"byteLength":107288,
			"byteOffset":482796,
			"target":34962
		},
		{
			"buffer":0,
			"byteLength":140292,
			"byteOffset":590084,
			"target":34963
		}
	],
	"samplers":[
		{
			"magFilter":9729,
			"minFilter":9987
		}
	],
	"buffers":[
		{
			"byteLength":730376,
			"uri":"pengwu.bin"
		}
	]
}
