<svg width="24" height="24" viewBox="0 0 0.72 0.72" fill="none" xmlns="http://www.w3.org/2000/svg"><path d="M.609.379.625.321C.643.253.652.22.645.19A.12.12 0 0 0 .61.13C.588.109.554.1.487.082.419.064.386.055.356.062a.12.12 0 0 0-.06.035C.278.116.269.143.256.193L.249.22.233.278C.215.346.206.379.213.409a.12.12 0 0 0 .035.06C.27.49.304.499.371.517c.061.016.094.025.122.022L.502.537a.12.12 0 0 0 .06-.035C.583.48.592.446.61.379Z" stroke="#d7dae0" stroke-width=".045"/><path d="M.492.539a.1.1 0 0 1-.032.05C.438.61.404.619.337.637S.236.664.206.657a.12.12 0 0 1-.06-.035C.125.6.116.566.098.499L.082.441C.064.373.055.34.062.31A.12.12 0 0 1 .097.25C.119.229.153.22.22.202L.255.193" stroke="#d7dae0" stroke-width=".045"/><path d="m.353.3.145.039M.33.387.417.41" stroke="#d7dae0" stroke-width=".045" stroke-linecap="round"/></svg>